<svg xmlns="http://www.w3.org/2000/svg" width="77.696" height="32.999" viewBox="0 0 77.696 32.999">
  <g id="logo" transform="translate(-306.5 -163.4)">
    <g id="Group_3" data-name="Group 3" transform="translate(313.182 163.4)">
      <path id="Path_13" data-name="Path 13" d="M367.5,164.027c-1.689,0-3.939.38-3.939,2.509,0,2.545,2.422,2.46,5.641,2.9,3.77.5,4.334,2.228,4.334,3.561,0,3.709-3.832,4.823-6.879,4.823a15.916,15.916,0,0,1-5.557-1.029l.111-.587a16.911,16.911,0,0,0,5.3,1.09c2.043,0,4.676-.551,4.676-3.1,0-2.338-2.338-2.375-4.064-2.607-2.252-.318-5.91-.82-5.91-3.795,0-3.451,3.414-4.295,6.277-4.295a15.32,15.32,0,0,1,5.006.759l-.186.563A13.839,13.839,0,0,0,367.5,164.027Z" transform="translate(-361.102 -163.489)" fill="#fff"/>
      <path id="Path_14" data-name="Path 14" d="M486.5,180.377V166.9h2.449v13.477Zm10.465-7.368V166.9h2.449v13.477h-2.449v-6.842h-7.184l.254-.526Z" transform="translate(-471.156 -166.472)" fill="#fff"/>
      <path id="Path_15" data-name="Path 15" d="M623.2,166.9h2.449v13.477H623.2Z" transform="translate(-591.122 -166.472)" fill="#fff"/>
      <path id="Path_16" data-name="Path 16" d="M667.6,180.022a3.335,3.335,0,0,1,.762-1.432l7.074-10.147c.172-.232.441-.563.441-.783,0-.122-.125-.232-.441-.232h-7.074V166.9h9.512c.637,0,.992.024.992.294a4.056,4.056,0,0,1-.785,1.457L671.2,178.835a1.917,1.917,0,0,0-.4.795c0,.147.109.209.4.209h7.578v.526H668.523C667.934,180.377,667.6,180.341,667.6,180.022Z" transform="translate(-630.086 -166.473)" fill="#fff"/>
      <path id="Path_17" data-name="Path 17" d="M787.246,177.3l-3.2-6.144h-5.18l-3.1,6.144H775.1l6.883-13.414c.168-.343.34-.49.5-.49.258,0,.488.356.707.8l7.016,13.1h-2.961Zm-5.512-10.562c-.145-.27-.254-.38-.34-.38-.125,0-.184.171-.254.293l-2,3.979h4.629Z" transform="translate(-724.431 -163.4)" fill="#fff"/>
    </g>
    <g id="Group_4" data-name="Group 4" transform="translate(306.5 177.329)">
      <path id="Path_18" data-name="Path 18" d="M311.064,295.559c3.158,0,4.908-1.258,4.908-3.24,0-2.217-2.375-2.891-4.332-2.891h-1.873c-.564,0-.82.65-.82,1.223v11.729H306.5v-11.9c0-.7.268-1.58.992-1.58h5.029c2.189,0,6.277.674,6.277,3.539s-4.588,3.646-7.342,3.646a11.55,11.55,0,0,1-1.666-.086l.148-.5A5.931,5.931,0,0,0,311.064,295.559Z" transform="translate(-306.5 -287.468)" fill="#fff"/>
      <path id="Path_19" data-name="Path 19" d="M423.77,311.043v9.412H421.6v-9.584c0-.648.295-1.371.941-1.371h3.328c4.041,0,6.023.76,6.023,2.668,0,1.727-1.727,2.547-3.916,2.656v.023c2.043.441,2.975,1.029,3.807,3.072l1.027,2.521h-2.605A35.091,35.091,0,0,0,428.8,316.7c-.65-1.432-1.518-1.85-3.512-1.85h-.674l.342-.5h1.689c1.6,0,3.035-.564,3.035-2.291,0-1.344-1.432-2.018-3.27-2.018h-1.725A.959.959,0,0,0,423.77,311.043Z" transform="translate(-407.515 -305.547)" fill="#fff"/>
      <path id="Path_20" data-name="Path 20" d="M529.832,307c3.594,0,6.25,2.422,6.25,5.789s-2.656,5.791-6.25,5.791c-3.574,0-6.23-2.424-6.23-5.791S526.242,307,529.832,307Zm0,11.174c3.152,0,3.8-2.9,3.8-5.385s-.652-5.385-3.8-5.385c-3.137,0-3.8,2.9-3.8,5.385S526.684,318.176,529.832,318.176Z" transform="translate(-497.031 -303.355)" fill="#fff"/>
      <path id="Path_21" data-name="Path 21" d="M622.6,291.473c0,4.088-3.648,4.8-5.352,4.8H616.6l.172-.418h.559c.969,0,3.1-.17,3.1-5.385v-9.3H622.6Zm-2.512-13.01a1.25,1.25,0,1,1,2.5,0,1.25,1.25,0,0,1-2.5,0Z" transform="translate(-578.645 -277.201)" fill="#fff"/>
      <path id="Path_22" data-name="Path 22" d="M701.508,314.35v.527h-6.844v4c0,.5.324,1.137.906,1.137h7.457v.527h-9.586c-.7,0-.937-.8-.937-1.494v-8.078c0-.65.293-1.371.938-1.371h8.91v.527H695.57a.971.971,0,0,0-.906,1.014v3.221h6.844Z" transform="translate(-645.257 -305.635)" fill="#fff"/>
      <path id="Path_23" data-name="Path 23" d="M802.434,308.852A7.868,7.868,0,0,0,797.9,307.5c-2.75,0-3.77,2.719-3.77,5.289-.023,3.8,2.129,5.225,4.066,5.225a6.705,6.705,0,0,0,4.465-1.578l.188.525a7.433,7.433,0,0,1-4.922,1.617c-3.574,0-6.227-2.422-6.227-5.789S794.355,307,797.93,307a8.433,8.433,0,0,1,4.648,1.285Z" transform="translate(-732.316 -303.355)" fill="#fff"/>
      <path id="Path_24" data-name="Path 24" d="M898.117,302.2h1.016l-.125.525H896c-.7,0-.945-.8-.945-1.492v-8.4H893.5l.188-.527h1.367V289.3h2.172v3.012h2.125l-.148.527h-1.977v8.236C897.211,301.564,897.523,302.2,898.117,302.2Z" transform="translate(-821.655 -287.819)" fill="#fff"/>
    </g>
  </g>
</svg>
